<svg xmlns="http://www.w3.org/2000/svg" version="1.1" xmlns:xlink="http://www.w3.org/1999/xlink" width="1000" height="1000"><style>
    #light-icon {
      display: inline;
    }
    #dark-icon {
      display: none;
    }

    @media (prefers-color-scheme: dark) {
      #light-icon {
        display: none;
      }
      #dark-icon {
        display: inline;
      }
    }
  </style><g id="light-icon"><svg xmlns="http://www.w3.org/2000/svg" version="1.1" xmlns:xlink="http://www.w3.org/1999/xlink" width="1000" height="1000"><g clip-path="url(#SvgjsClipPath1429)"><rect width="1000" height="1000" fill="#155dfc"></rect><g transform="matrix(3.7433155080213902,0,0,3.7433155080213902,150,150)"><svg xmlns="http://www.w3.org/2000/svg" version="1.1" xmlns:xlink="http://www.w3.org/1999/xlink" width="187" height="187"><svg width="187" height="187" viewBox="0 0 187 187" fill="none" xmlns="http://www.w3.org/2000/svg">
<path d="M60.7578 62.9618C64.6529 37.7962 79.7025 35 105.552 35C106.261 35 108.739 35 109.093 35.1553L117.769 35.6214C134.412 36.5534 140.078 52.8645 140.078 65.292V71.9717C140.078 73.3698 138.661 75.0786 137.068 75.0786H119.54C117.592 75.0786 116.53 73.0591 116.53 71.661V64.3599C116.53 59.3889 114.051 58.1462 108.562 57.9908C107.677 57.9908 103.251 57.8355 102.188 57.8355H100.949H96.1685C92.4503 57.9908 87.1387 58.3015 85.3682 61.8744C85.5453 61.7191 86.0764 61.5637 86.2535 61.5637C84.837 62.4958 84.3059 63.4278 84.3059 65.292L91.388 60.6317C92.4503 60.4763 93.3356 60.4763 94.3979 60.4763L83.9518 67.3114C83.5977 68.5542 83.5977 72.9038 83.5977 74.1465V99.7782C83.5977 102.574 83.7747 105.371 83.9518 108.011C84.837 114.847 87.1387 116.555 94.9291 117.177C96.8767 117.177 98.8243 117.332 100.949 117.332H102.365C102.719 117.332 102.719 117.332 102.897 117.177L114.582 109.565V110.031V110.652V111.429L105.729 117.177C106.969 117.177 108.385 117.177 109.625 117.021L114.228 114.07C114.228 114.691 113.874 115.468 113.52 116.089C116.176 116.089 117.415 109.72 117.415 108.011V100.71C117.415 99.3122 118.831 97.6034 120.602 97.6034H137.953C139.547 97.6034 141.14 99.1568 141.14 100.555V110.186C141.14 125.721 135.12 137.993 115.113 139.391L101.126 140.323C85.8994 140.323 71.7351 140.012 64.4759 126.187C62.7054 122.769 61.466 118.73 60.9348 115.002L60.2266 108.943L59.8725 101.798V73.5252C59.8725 70.1076 60.2266 66.5347 60.7578 62.9618ZM62.1742 51.7771L50.8428 59.2336C50.8428 59.0782 53.3215 55.9714 53.8527 55.5053L63.2365 49.2916C63.4136 49.1362 63.7677 49.1362 63.9447 49.1362L63.5906 49.6023C63.4136 49.913 62.3512 51.4664 62.1742 51.7771ZM59.5184 57.8355L48.0099 65.4473C48.0099 65.1366 48.7181 63.4278 48.8952 62.9618L60.5807 55.5053L59.5184 57.8355ZM88.024 69.0202H85.1912L98.1161 60.4763H99.0013H99.7095H100.949L88.024 69.0202ZM91.5651 69.0202L104.667 60.4763C105.375 60.4763 106.438 60.6317 107.146 60.6317L94.3979 69.0202L94.2209 69.1755C93.8668 69.1755 91.9192 69.1755 91.5651 69.0202ZM46.9476 68.5542L58.8102 60.787L58.279 62.9618L46.4164 70.729C46.4164 70.5736 46.4164 70.4183 46.5935 70.263C46.5935 69.7969 46.9476 68.5542 46.9476 68.5542ZM97.4078 69.6416V69.4862L109.979 61.253C110.687 61.253 111.395 61.5637 111.749 61.8744L99.1784 70.1076C98.6472 69.9523 97.939 69.7969 97.4078 69.6416ZM100.772 71.661L112.989 63.5832C113.166 63.4278 113.52 64.9813 113.52 65.1366L101.303 73.0591L100.772 71.661ZM45.7082 75.5446L45.8853 73.5252L57.7479 65.758L57.5708 67.7775L45.7082 75.5446ZM101.657 75.3893L113.697 67.4668V69.3309L101.657 77.0981V75.3893ZM45.5312 78.1855L57.0396 70.4183H57.2167V70.729V72.2824L45.1771 80.2049C45.1771 79.8942 45.3541 78.4961 45.5312 78.1855ZM101.657 79.5836L113.697 71.661V73.5252L101.657 81.4477V79.5836ZM45.1771 82.5351L57.0396 74.7679V75.3893V76.632L45 84.5545C45 84.0885 45 83.1565 45.1771 82.5351ZM101.834 83.7778L113.874 75.8553C114.228 76.3213 114.582 76.632 114.936 76.9427L102.542 85.1759C102.365 85.0206 101.657 83.7778 101.834 83.7778ZM104.667 86.2633L117.592 77.7194H120.425L107.5 86.2633H104.667ZM111.041 86.2633L124.143 77.7194H125.205V78.8068L113.874 86.2633H111.041ZM45 88.7488V87.04L57.0396 79.1175V80.8263L45 88.7488ZM117.592 86.2633L125.205 81.2923V83.0011L120.425 86.2633H117.592ZM45 92.9431V91.079L57.0396 83.3118V85.1759L45 92.9431ZM45 95.4286L57.0396 87.5061V89.3702L45 97.2927V95.4286ZM45 99.6228L57.0396 91.8557V93.7198L45 101.487V99.6228ZM45 105.837V103.972L56.6855 96.2053C56.8626 96.2053 56.8626 96.05 57.0396 96.05V97.9141L45 105.837ZM45 110.031V108.167L56.6855 100.555C56.8626 100.555 56.8626 100.4 57.0396 100.4V102.264L45 110.031ZM45 112.516L57.0396 104.594V104.749V106.458L45 114.38V112.982V112.516ZM45.1771 116.711L57.2167 108.788V110.342V110.652L45.1771 118.419V116.711ZM102.542 114.847V112.982L108.916 108.943H111.749L102.542 114.847ZM105.198 108.943L103.251 110.186C103.782 109.565 104.49 109.099 105.198 108.943ZM45.5312 120.75L57.3937 112.982C57.5708 113.448 57.7479 113.914 57.7479 114.536L45.7082 122.458C45.5312 122.148 45.5312 121.216 45.5312 120.75ZM46.0623 124.633L57.9249 116.866C58.102 117.332 58.279 117.798 58.279 118.419C58.279 118.575 58.279 118.419 58.102 118.575L46.2394 126.342C46.0623 126.031 46.0623 125.099 46.0623 124.633ZM46.7705 128.517L58.6331 120.75V120.594C58.8102 120.905 58.9872 121.992 58.9872 122.303L46.9476 130.225C46.7705 129.759 46.5935 128.827 46.5935 128.672C46.5935 128.517 46.7705 128.517 46.7705 128.517ZM47.4787 132.245H47.6558L59.6954 124.167L60.2266 125.721L48.0099 133.798C47.8329 133.177 47.4787 132.245 47.4787 132.245ZM48.8952 135.507L61.1119 127.585C61.2889 128.051 61.8201 128.672 61.643 128.983L49.4263 137.061L48.8952 135.818V135.507ZM50.4887 138.769L62.7054 130.692L63.5906 131.934L51.1969 140.012C51.1969 140.012 50.8428 139.391 50.6657 139.235C50.6657 139.08 50.4887 138.769 50.4887 138.769ZM53.4986 142.964L52.4362 141.721L64.83 133.643C65.1841 133.954 65.8923 134.73 65.8923 134.73L53.6756 142.808L53.4986 142.964ZM54.915 144.362L67.3087 136.284V136.129C67.4858 136.284 68.3711 137.061 68.7252 137.216L56.3314 145.294H56.1544C56.1544 145.294 55.0921 144.362 54.915 144.362ZM57.9249 146.692L70.4957 138.459C70.6728 138.459 71.9121 139.08 72.0892 139.235L59.5184 147.469C59.3413 147.469 58.102 146.692 57.9249 146.692ZM61.643 148.556L74.2138 140.167H74.3909L76.1614 140.944L63.4136 149.177C62.8824 149.022 61.8201 148.711 61.643 148.556ZM104.844 150.109L118.3 141.255C119.362 141.1 120.425 140.789 121.31 140.478H121.487C121.31 140.789 121.133 141.1 120.779 141.255L108.562 149.333C108.385 149.488 105.375 150.109 105.021 150.109H104.844ZM66.0694 149.954L78.6402 141.721C78.8172 141.566 78.6402 141.566 78.9943 141.566L80.9419 142.032L68.194 150.42C67.3087 150.265 66.2464 149.954 66.0694 149.954ZM100.418 150.575L97.2308 150.886L110.333 142.187C110.687 142.032 113.166 141.876 113.52 141.876H113.697L100.418 150.575ZM71.0269 150.886H71.2039L83.7747 142.498H84.1288C84.837 142.498 85.7223 142.498 86.4305 142.653L73.6827 151.042C73.5056 151.197 73.5056 151.197 73.3286 151.197C72.9745 151.197 71.558 151.042 71.0269 150.886ZM92.8045 151.197L89.9716 151.352L103.074 142.653C103.428 142.498 104.313 142.498 105.021 142.498H106.261L93.1586 151.042C93.1586 151.197 92.9815 151.197 92.8045 151.197ZM76.8696 151.352L89.7945 142.964V142.808C90.6798 142.808 91.7421 142.808 92.6274 142.964L79.5254 151.508H78.9943H78.2861C77.932 151.508 77.0467 151.352 77.0467 151.352H76.8696ZM83.2436 151.508L96.1685 142.964H96.3455C96.3455 142.964 98.1161 142.808 98.6472 142.808C98.6472 142.808 99.0013 142.964 99.1784 142.964L86.0764 151.508H83.2436Z" fill="white"></path>
</svg></svg></g></g><defs><clipPath id="SvgjsClipPath1429"><rect width="1000" height="1000" x="0" y="0" rx="350" ry="350"></rect></clipPath></defs></svg></g><g id="dark-icon"><svg xmlns="http://www.w3.org/2000/svg" version="1.1" xmlns:xlink="http://www.w3.org/1999/xlink" width="1000" height="1000"><g clip-path="url(#SvgjsClipPath1430)"><rect width="1000" height="1000" fill="#155dfc"></rect><g transform="matrix(5.347593582887701,0,0,5.347593582887701,0,0)"><svg xmlns="http://www.w3.org/2000/svg" version="1.1" xmlns:xlink="http://www.w3.org/1999/xlink" width="187" height="187"><svg width="187" height="187" viewBox="0 0 187 187" fill="none" xmlns="http://www.w3.org/2000/svg">
<path d="M60.7578 62.9618C64.6529 37.7962 79.7025 35 105.552 35C106.261 35 108.739 35 109.093 35.1553L117.769 35.6214C134.412 36.5534 140.078 52.8645 140.078 65.292V71.9717C140.078 73.3698 138.661 75.0786 137.068 75.0786H119.54C117.592 75.0786 116.53 73.0591 116.53 71.661V64.3599C116.53 59.3889 114.051 58.1462 108.562 57.9908C107.677 57.9908 103.251 57.8355 102.188 57.8355H100.949H96.1685C92.4503 57.9908 87.1387 58.3015 85.3682 61.8744C85.5453 61.7191 86.0764 61.5637 86.2535 61.5637C84.837 62.4958 84.3059 63.4278 84.3059 65.292L91.388 60.6317C92.4503 60.4763 93.3356 60.4763 94.3979 60.4763L83.9518 67.3114C83.5977 68.5542 83.5977 72.9038 83.5977 74.1465V99.7782C83.5977 102.574 83.7747 105.371 83.9518 108.011C84.837 114.847 87.1387 116.555 94.9291 117.177C96.8767 117.177 98.8243 117.332 100.949 117.332H102.365C102.719 117.332 102.719 117.332 102.897 117.177L114.582 109.565V110.031V110.652V111.429L105.729 117.177C106.969 117.177 108.385 117.177 109.625 117.021L114.228 114.07C114.228 114.691 113.874 115.468 113.52 116.089C116.176 116.089 117.415 109.72 117.415 108.011V100.71C117.415 99.3122 118.831 97.6034 120.602 97.6034H137.953C139.547 97.6034 141.14 99.1568 141.14 100.555V110.186C141.14 125.721 135.12 137.993 115.113 139.391L101.126 140.323C85.8994 140.323 71.7351 140.012 64.4759 126.187C62.7054 122.769 61.466 118.73 60.9348 115.002L60.2266 108.943L59.8725 101.798V73.5252C59.8725 70.1076 60.2266 66.5347 60.7578 62.9618ZM62.1742 51.7771L50.8428 59.2336C50.8428 59.0782 53.3215 55.9714 53.8527 55.5053L63.2365 49.2916C63.4136 49.1362 63.7677 49.1362 63.9447 49.1362L63.5906 49.6023C63.4136 49.913 62.3512 51.4664 62.1742 51.7771ZM59.5184 57.8355L48.0099 65.4473C48.0099 65.1366 48.7181 63.4278 48.8952 62.9618L60.5807 55.5053L59.5184 57.8355ZM88.024 69.0202H85.1912L98.1161 60.4763H99.0013H99.7095H100.949L88.024 69.0202ZM91.5651 69.0202L104.667 60.4763C105.375 60.4763 106.438 60.6317 107.146 60.6317L94.3979 69.0202L94.2209 69.1755C93.8668 69.1755 91.9192 69.1755 91.5651 69.0202ZM46.9476 68.5542L58.8102 60.787L58.279 62.9618L46.4164 70.729C46.4164 70.5736 46.4164 70.4183 46.5935 70.263C46.5935 69.7969 46.9476 68.5542 46.9476 68.5542ZM97.4078 69.6416V69.4862L109.979 61.253C110.687 61.253 111.395 61.5637 111.749 61.8744L99.1784 70.1076C98.6472 69.9523 97.939 69.7969 97.4078 69.6416ZM100.772 71.661L112.989 63.5832C113.166 63.4278 113.52 64.9813 113.52 65.1366L101.303 73.0591L100.772 71.661ZM45.7082 75.5446L45.8853 73.5252L57.7479 65.758L57.5708 67.7775L45.7082 75.5446ZM101.657 75.3893L113.697 67.4668V69.3309L101.657 77.0981V75.3893ZM45.5312 78.1855L57.0396 70.4183H57.2167V70.729V72.2824L45.1771 80.2049C45.1771 79.8942 45.3541 78.4961 45.5312 78.1855ZM101.657 79.5836L113.697 71.661V73.5252L101.657 81.4477V79.5836ZM45.1771 82.5351L57.0396 74.7679V75.3893V76.632L45 84.5545C45 84.0885 45 83.1565 45.1771 82.5351ZM101.834 83.7778L113.874 75.8553C114.228 76.3213 114.582 76.632 114.936 76.9427L102.542 85.1759C102.365 85.0206 101.657 83.7778 101.834 83.7778ZM104.667 86.2633L117.592 77.7194H120.425L107.5 86.2633H104.667ZM111.041 86.2633L124.143 77.7194H125.205V78.8068L113.874 86.2633H111.041ZM45 88.7488V87.04L57.0396 79.1175V80.8263L45 88.7488ZM117.592 86.2633L125.205 81.2923V83.0011L120.425 86.2633H117.592ZM45 92.9431V91.079L57.0396 83.3118V85.1759L45 92.9431ZM45 95.4286L57.0396 87.5061V89.3702L45 97.2927V95.4286ZM45 99.6228L57.0396 91.8557V93.7198L45 101.487V99.6228ZM45 105.837V103.972L56.6855 96.2053C56.8626 96.2053 56.8626 96.05 57.0396 96.05V97.9141L45 105.837ZM45 110.031V108.167L56.6855 100.555C56.8626 100.555 56.8626 100.4 57.0396 100.4V102.264L45 110.031ZM45 112.516L57.0396 104.594V104.749V106.458L45 114.38V112.982V112.516ZM45.1771 116.711L57.2167 108.788V110.342V110.652L45.1771 118.419V116.711ZM102.542 114.847V112.982L108.916 108.943H111.749L102.542 114.847ZM105.198 108.943L103.251 110.186C103.782 109.565 104.49 109.099 105.198 108.943ZM45.5312 120.75L57.3937 112.982C57.5708 113.448 57.7479 113.914 57.7479 114.536L45.7082 122.458C45.5312 122.148 45.5312 121.216 45.5312 120.75ZM46.0623 124.633L57.9249 116.866C58.102 117.332 58.279 117.798 58.279 118.419C58.279 118.575 58.279 118.419 58.102 118.575L46.2394 126.342C46.0623 126.031 46.0623 125.099 46.0623 124.633ZM46.7705 128.517L58.6331 120.75V120.594C58.8102 120.905 58.9872 121.992 58.9872 122.303L46.9476 130.225C46.7705 129.759 46.5935 128.827 46.5935 128.672C46.5935 128.517 46.7705 128.517 46.7705 128.517ZM47.4787 132.245H47.6558L59.6954 124.167L60.2266 125.721L48.0099 133.798C47.8329 133.177 47.4787 132.245 47.4787 132.245ZM48.8952 135.507L61.1119 127.585C61.2889 128.051 61.8201 128.672 61.643 128.983L49.4263 137.061L48.8952 135.818V135.507ZM50.4887 138.769L62.7054 130.692L63.5906 131.934L51.1969 140.012C51.1969 140.012 50.8428 139.391 50.6657 139.235C50.6657 139.08 50.4887 138.769 50.4887 138.769ZM53.4986 142.964L52.4362 141.721L64.83 133.643C65.1841 133.954 65.8923 134.73 65.8923 134.73L53.6756 142.808L53.4986 142.964ZM54.915 144.362L67.3087 136.284V136.129C67.4858 136.284 68.3711 137.061 68.7252 137.216L56.3314 145.294H56.1544C56.1544 145.294 55.0921 144.362 54.915 144.362ZM57.9249 146.692L70.4957 138.459C70.6728 138.459 71.9121 139.08 72.0892 139.235L59.5184 147.469C59.3413 147.469 58.102 146.692 57.9249 146.692ZM61.643 148.556L74.2138 140.167H74.3909L76.1614 140.944L63.4136 149.177C62.8824 149.022 61.8201 148.711 61.643 148.556ZM104.844 150.109L118.3 141.255C119.362 141.1 120.425 140.789 121.31 140.478H121.487C121.31 140.789 121.133 141.1 120.779 141.255L108.562 149.333C108.385 149.488 105.375 150.109 105.021 150.109H104.844ZM66.0694 149.954L78.6402 141.721C78.8172 141.566 78.6402 141.566 78.9943 141.566L80.9419 142.032L68.194 150.42C67.3087 150.265 66.2464 149.954 66.0694 149.954ZM100.418 150.575L97.2308 150.886L110.333 142.187C110.687 142.032 113.166 141.876 113.52 141.876H113.697L100.418 150.575ZM71.0269 150.886H71.2039L83.7747 142.498H84.1288C84.837 142.498 85.7223 142.498 86.4305 142.653L73.6827 151.042C73.5056 151.197 73.5056 151.197 73.3286 151.197C72.9745 151.197 71.558 151.042 71.0269 150.886ZM92.8045 151.197L89.9716 151.352L103.074 142.653C103.428 142.498 104.313 142.498 105.021 142.498H106.261L93.1586 151.042C93.1586 151.197 92.9815 151.197 92.8045 151.197ZM76.8696 151.352L89.7945 142.964V142.808C90.6798 142.808 91.7421 142.808 92.6274 142.964L79.5254 151.508H78.9943H78.2861C77.932 151.508 77.0467 151.352 77.0467 151.352H76.8696ZM83.2436 151.508L96.1685 142.964H96.3455C96.3455 142.964 98.1161 142.808 98.6472 142.808C98.6472 142.808 99.0013 142.964 99.1784 142.964L86.0764 151.508H83.2436Z" fill="white"></path>
</svg></svg></g></g><defs><clipPath id="SvgjsClipPath1430"><rect width="1000" height="1000" x="0" y="0" rx="400" ry="400"></rect></clipPath></defs></svg></g></svg>